<?xml version="1.0" standalone="no"?>
<!DOCTYPE svg PUBLIC "-//W3C//DTD SVG 20010904//EN"
 "http://www.w3.org/TR/2001/REC-SVG-20010904/DTD/svg10.dtd">
<svg version="1.0" xmlns="http://www.w3.org/2000/svg"
 width="700.000000pt" height="700.000000pt" viewBox="0 0 700.000000 700.000000"
 preserveAspectRatio="xMidYMid meet">
<metadata>
Created by potrace 1.11, written by Peter Selinger 2001-2013
</metadata>
<g transform="translate(0.000000,700.000000) scale(0.100000,-0.100000)"
fill="#000000" stroke="none">
<path d="M3477 5224 c-1 -1 -47 -4 -102 -8 -132 -8 -208 -21 -340 -58 -301
-85 -560 -240 -776 -464 -252 -263 -423 -613 -464 -951 -3 -26 -8 -64 -11 -83
-7 -53 -7 -246 1 -325 6 -60 13 -101 41 -245 14 -71 81 -253 131 -355 100
-205 292 -443 467 -579 84 -66 250 -176 264 -176 5 0 33 -13 63 -29 55 -30
195 -86 259 -103 61 -16 114 -30 135 -34 11 -2 31 -6 45 -9 119 -24 393 -36
465 -21 11 2 52 7 90 12 39 4 72 8 75 9 3 1 32 7 65 14 107 24 288 91 405 152
497 257 850 757 915 1295 4 33 9 68 11 79 6 29 6 285 0 315 -3 14 -7 48 -10
75 -22 213 -137 519 -270 716 -47 72 -53 79 -137 178 -278 329 -712 551 -1146
586 -80 7 -173 11 -176 9z"/>
</g>
</svg>
